<svg width="514" height="138" viewBox="0 0 514 138" fill="none" xmlns="http://www.w3.org/2000/svg">
<path d="M166.073 71.199C160.944 99.1907 147.992 120.575 126.345 130.574C116.521 135.093 107.308 137.616 85.5724 137.616H23.9336L28.9747 109.014H83.2251C115.828 109.102 124.432 94.9305 128.692 82.5887C130.258 77.9775 133.996 63.6351 134.084 55.2025C134.343 38.6882 126.257 28.6893 98.7873 28.6893L43.1505 28.6059L48.1916 0H109.914C164.16 0 173.808 29.6458 166.073 71.199Z" fill="#4C7EFF"/>
<path d="M295.988 137.699L300.336 112.835H353.015C357.188 112.835 360.057 110.313 360.663 106.228C361.531 102.056 359.447 99.6206 355.275 99.6206H330.065C310.155 99.6206 300.682 88.0597 304.157 68.1496C307.724 48.2439 321.369 36.6787 341.279 36.6787H398.566L394.047 61.5422H343.539C339.366 61.5422 336.497 64.0649 335.887 68.1496C335.018 72.3221 337.102 74.7571 341.279 74.7571H366.489C386.395 74.7571 395.872 86.3179 392.392 106.228C388.913 126.134 375.439 137.699 355.534 137.699H295.983H295.988Z" fill="#4C7EFF"/>
<path d="M217.857 137.699C185.083 137.699 170.389 119.877 176.216 87.1034C181.779 54.3294 202.904 36.5955 235.678 36.5955H293.662L275.841 137.695H217.857V137.699ZM255.584 61.4589H240.632C222.81 61.4589 212.293 69.3694 209.161 87.1034C205.857 104.925 212.464 112.836 230.286 112.836H246.629L255.584 61.4589Z" fill="#4C7EFF"/>
<path d="M468.265 137.699L478.61 78.8462C480.435 67.2854 475.741 62.2443 464.18 62.2443H447.661L434.359 137.616H400.804L425.057 0.00439453H458.612L452.18 36.6042H477.303C506.685 36.6042 517.29 49.4681 512.073 78.855L501.727 137.708H468.26L468.265 137.699Z" fill="#4C7EFF"/>
<path d="M85.888 54.4126L83.4706 68.1321C81.9525 76.7402 76.3191 83.0185 65.7322 83.0185H0L2.41747 69.2991C3.93552 60.691 9.56895 54.4126 20.1558 54.4126H85.888Z" fill="#4C7EFF"/>
</svg>
